HIERARCHY
ROOT Hips
{
	OFFSET 0.00 0.00 0.00
	CHANNELS 6 Xposition Yposition Zposition Zrotation Yrotation Xrotation
	JOINT Spine
	{
		OFFSET	0.0000	12.9474	1.3069
		CHANNELS 3 Zrotation Yrotation Xrotation
		JOINT Spine1
		{
			OFFSET	0.0000	11.6502	0.0897
			CHANNELS 3 Zrotation Yrotation Xrotation
			JOINT Spine2
			{
				OFFSET	0.0000	11.8996	-0.0200
				CHANNELS 3 Zrotation Yrotation Xrotation
				JOINT Neck
				{
					OFFSET	0.0000	29.8625	-6.8568
					CHANNELS 3 Zrotation Yrotation Xrotation
					JOINT Head
					{
						OFFSET	0.0000	15.8127	4.5046
						CHANNELS 3 Zrotation Yrotation Xrotation
						End Site
						{
							OFFSET 0.0000 16.9142 8.5489
						}
					}
				}
				JOINT LeftShoulder
				{
					OFFSET	15.6932	30.5276	-14.8855
					CHANNELS 3 Zrotation Yrotation Xrotation
					JOINT LeftArm
					{
						OFFSET	15.1106	-10.2541	-0.0017
						CHANNELS 3 Zrotation Yrotation Xrotation
						JOINT LeftForeArm
						{
							OFFSET	31.4047	-20.2208	-1.5857
							CHANNELS 3 Zrotation Yrotation Xrotation
							JOINT LeftHand
							{
								OFFSET	33.6957	-19.2580	15.6991
								CHANNELS 3 Zrotation Yrotation Xrotation
								JOINT LeftHandMiddle1
								{
									OFFSET	11.0571	-10.4817	9.4547
									CHANNELS 3 Zrotation Yrotation Xrotation
									JOINT LeftHandMiddle2
									{
										OFFSET	3.4215	-5.0087	3.1670
										CHANNELS 3 Zrotation Yrotation Xrotation
										JOINT LeftHandMiddle3
										{
											OFFSET	1.8148	-4.7192	2.5351
											CHANNELS 3 Zrotation Yrotation Xrotation
											End Site
											{
												OFFSET 0.5564 -3.7387 2.3634
											}
										}
									}
								}
								JOINT LeftHandThumb1
								{
									OFFSET	-1.0031	-1.2668	10.5842
									CHANNELS 3 Zrotation Yrotation Xrotation
									JOINT LeftHandThumb2
									{
										OFFSET	0.2584	0.1803	6.9748
										CHANNELS 3 Zrotation Yrotation Xrotation
										JOINT LeftHandThumb3
										{
											OFFSET	0.4558	-1.3006	4.2279
											CHANNELS 3 Zrotation Yrotation Xrotation
											End Site
											{
												OFFSET 0.3543 -2.2515 4.8270
											}
										}
									}
								}
								JOINT LeftHandIndex1
								{
									OFFSET	10.1078	-6.3687	14.1094
									CHANNELS 3 Zrotation Yrotation Xrotation
									JOINT LeftHandIndex2
									{
										OFFSET	3.1194	-3.8277	3.9230
										CHANNELS 3 Zrotation Yrotation Xrotation
										JOINT LeftHandIndex3
										{
											OFFSET	1.3756	-4.1963	2.9070
											CHANNELS 3 Zrotation Yrotation Xrotation
											End Site
											{
												OFFSET 0.6727 -3.7890 2.5988
											}
										}
									}
								}
								JOINT LeftHandRing1
								{
									OFFSET	10.0847	-13.6899	4.3344
									CHANNELS 3 Zrotation Yrotation Xrotation
									JOINT LeftHandRing2
									{
										OFFSET	3.2413	-5.1039	1.8840
										CHANNELS 3 Zrotation Yrotation Xrotation
										JOINT LeftHandRing3
										{
											OFFSET	1.5323	-5.0397	1.9270
											CHANNELS 3 Zrotation Yrotation Xrotation
											End Site
											{
												OFFSET 0.8809 -4.1420 1.4919
											}
										}
									}
								}
								JOINT LeftHandPinky1
								{
									OFFSET	9.0408	-16.1777	-0.5730
									CHANNELS 3 Zrotation Yrotation Xrotation
									JOINT LeftHandPinky2
									{
										OFFSET	2.5791	-4.9057	0.6134
										CHANNELS 3 Zrotation Yrotation Xrotation
										JOINT LeftHandPinky3
										{
											OFFSET	0.8052	-3.7871	1.3188
											CHANNELS 3 Zrotation Yrotation Xrotation
											End Site
											{
												OFFSET 0.2188 -3.8976 1.6089
											}
										}
									}
								}
							}
						}
					}
				}
				JOINT RightShoulder
				{
					OFFSET	-15.6932	30.5276	-14.8855
					CHANNELS 3 Zrotation Yrotation Xrotation
					JOINT RightArm
					{
						OFFSET	-15.1106	-10.2541	-0.0017
						CHANNELS 3 Zrotation Yrotation Xrotation
						JOINT RightForeArm
						{
							OFFSET	-31.4047	-20.2208	-1.5857
							CHANNELS 3 Zrotation Yrotation Xrotation
							JOINT RightHand
							{
								OFFSET	-33.6957	-19.2580	15.6991
								CHANNELS 3 Zrotation Yrotation Xrotation
								JOINT RightHandThumb1
								{
									OFFSET	1.0031	-1.2668	10.5842
									CHANNELS 3 Zrotation Yrotation Xrotation
									JOINT RightHandThumb2
									{
										OFFSET	-0.2584	0.1803	6.9748
										CHANNELS 3 Zrotation Yrotation Xrotation
										JOINT RightHandThumb3
										{
											OFFSET	-0.4558	-1.3006	4.2279
											CHANNELS 3 Zrotation Yrotation Xrotation
											End Site
											{
												OFFSET -0.3543 -2.2515 4.8270
											}
										}
									}
								}
								JOINT RightHandIndex1
								{
									OFFSET	-10.1078	-6.3687	14.1094
									CHANNELS 3 Zrotation Yrotation Xrotation
									JOINT RightHandIndex2
									{
										OFFSET	-3.1194	-3.8277	3.9230
										CHANNELS 3 Zrotation Yrotation Xrotation
										JOINT RightHandIndex3
										{
											OFFSET	-1.3756	-4.1963	2.9070
											CHANNELS 3 Zrotation Yrotation Xrotation
											End Site
											{
												OFFSET -0.6727 -3.7890 2.5988
											}
										}
									}
								}
								JOINT RightHandMiddle1
								{
									OFFSET	-11.0571	-10.4817	9.4547
									CHANNELS 3 Zrotation Yrotation Xrotation
									JOINT RightHandMiddle2
									{
										OFFSET	-3.4215	-5.0087	3.1670
										CHANNELS 3 Zrotation Yrotation Xrotation
										JOINT RightHandMiddle3
										{
											OFFSET	-1.8148	-4.7192	2.5351
											CHANNELS 3 Zrotation Yrotation Xrotation
											End Site
											{
												OFFSET -0.5564 -3.7387 2.3634
											}
										}
									}
								}
								JOINT RightHandRing1
								{
									OFFSET	-10.0847	-13.6899	4.3344
									CHANNELS 3 Zrotation Yrotation Xrotation
									JOINT RightHandRing2
									{
										OFFSET	-3.2413	-5.1039	1.8840
										CHANNELS 3 Zrotation Yrotation Xrotation
										JOINT RightHandRing3
										{
											OFFSET	-1.5323	-5.0397	1.9270
											CHANNELS 3 Zrotation Yrotation Xrotation
											End Site
											{
												OFFSET -0.8809 -4.1420 1.4919
											}
										}
									}
								}
								JOINT RightHandPinky1
								{
									OFFSET	-9.0408	-16.1777	-0.5730
									CHANNELS 3 Zrotation Yrotation Xrotation
									JOINT RightHandPinky2
									{
										OFFSET	-2.5791	-4.9057	0.6134
										CHANNELS 3 Zrotation Yrotation Xrotation
										JOINT RightHandPinky3
										{
											OFFSET	-0.8052	-3.7871	1.3188
											CHANNELS 3 Zrotation Yrotation Xrotation
											End Site
											{
												OFFSET -0.2188 -3.8976 1.6089
											}
										}
									}
								}
							}
						}
					}
				}
			}
		}
	}
	JOINT LeftUpLeg
	{
		OFFSET	15.6585	-8.4068	1.4670
		CHANNELS 3 Zrotation Yrotation Xrotation
		JOINT LeftLeg
		{
			OFFSET	4.8126	-36.5793	1.4225
			CHANNELS 3 Zrotation Yrotation Xrotation
			JOINT LeftFoot
			{
				OFFSET	3.3315	-36.9309	-9.3826
				CHANNELS 3 Zrotation Yrotation Xrotation
				JOINT LeftToeBase
				{
					OFFSET	5.8406	-16.0536	19.7570
					CHANNELS 3 Zrotation Yrotation Xrotation
					End Site
					{
						OFFSET 2.6829 1.8767 15.4928
					}
				}
			}
		}
	}
	JOINT RightUpLeg
	{
		OFFSET	-15.6585	-8.4068	1.4670
		CHANNELS 3 Zrotation Yrotation Xrotation
		JOINT RightLeg
		{
			OFFSET	-4.8126	-36.5793	1.4225
			CHANNELS 3 Zrotation Yrotation Xrotation
			JOINT RightFoot
			{
				OFFSET	-3.3315	-36.9309	-9.3826
				CHANNELS 3 Zrotation Yrotation Xrotation
				JOINT RightToeBase
				{
					OFFSET	-5.8406	-16.0536	19.7570
					CHANNELS 3 Zrotation Yrotation Xrotation
					End Site
					{
						OFFSET -2.6829 1.8767 15.4928
					}
				}
			}
		}
	}
}
MOTION
Frames: 6
Frame Time: 0.0333333
9.9928 90.0570 3.1989 -3.7385 8.0671 1.8032 -3.8741 3.1878 1.4461 -5.3312 5.7324 3.1736 -5.3408 5.6959 3.2142 -7.1679 -3.4714 -2.2021 10.5036 -28.3156 1.7559 1.3021 -3.3328 1.0633 -9.7719 -26.4213 -12.2808 63.8525 -59.9067 -97.3534 39.9143 -3.9943 20.1846 -52.6087 -32.1168 14.0308 -49.3136 -24.3874 10.6024 -25.1517 -11.3278 7.7692 -5.5444 5.0757 25.4878 0.6979 -1.7411 -10.0274 -1.1631 6.3496 5.9758 -46.4895 -23.4246 20.3854 -51.4027 -31.9979 17.1790 -36.7096 -19.3682 11.7745 -58.3914 -38.7059 10.0674 -41.4607 -16.1369 3.2475 -35.1576 -14.0597 0.8003 -52.0349 -41.9747 -0.0721 -46.6615 -13.0663 4.1547 -32.3246 -12.1934 1.8768 -19.1226 1.2126 -0.0029 -11.8046 29.1227 -55.0142 -20.3701 51.5078 -45.9535 -53.9762 27.2646 38.2399 8.2486 -12.9726 26.4704 -0.5042 2.1014 -8.8563 -1.8015 -4.2068 -7.5079 38.7301 23.9707 11.1848 16.1817 16.2108 -1.7994 25.0745 14.3461 7.0351 29.6725 25.2620 0.5396 31.8502 18.1949 3.7790 25.3177 11.3787 7.8494 29.1201 29.8824 -5.3663 14.7380 6.1561 -0.3626 26.3753 10.8463 -0.4867 32.0788 35.8374 -10.3698 14.7389 0.3678 6.4523 21.3240 7.9639 1.2403 1.8885 -4.5596 -46.1546 3.9032 -9.0209 43.4081 -7.0878 -17.0347 0.0994 -0.0000 0.0000 -1.1400 0.8188 -13.8243 -2.0089 -14.4341 -8.2256 46.0655 16.1657 -7.3973 -8.4732 10.2547 2.8796 -22.1680 
10.5225 88.6417 3.4776 -4.2611 6.4099 1.6870 -4.2963 3.3897 2.2881 -5.8824 6.1679 4.5341 -5.8736 6.1278 4.5919 -7.0572 -3.5846 -1.7771 13.5399 -28.4440 -2.7729 0.3055 -5.2747 1.3830 -15.4882 -14.7197 -4.7723 75.2453 -58.4161 -110.6028 42.1407 -2.5043 13.8909 -56.2426 -32.4922 16.7782 -51.4315 -24.9633 11.5399 -27.5162 -12.3543 8.3648 -5.8088 4.8808 25.4780 0.6813 -1.7351 -9.9914 -1.4924 6.6269 7.7383 -49.9486 -23.9182 23.1627 -58.2657 -33.3999 21.5518 -40.0352 -20.5662 13.2892 -62.4544 -39.2805 12.4973 -44.1850 -17.0008 3.8665 -36.4291 -14.4988 1.0315 -54.6679 -42.4910 1.4453 -47.9930 -13.4446 4.3072 -33.9139 -12.7826 2.0408 -14.8508 3.3135 0.0829 -3.0441 23.0505 -46.5557 -55.0849 60.1054 -87.2387 -52.6498 31.4798 39.9934 7.9243 -13.2250 26.2429 -0.5042 2.1014 -8.8563 -1.7973 -4.2139 -7.4752 38.5650 24.9584 9.5202 13.7711 14.5676 -2.7593 24.4078 14.0228 6.7891 29.2435 25.7153 -0.6457 26.7273 15.9349 2.1255 25.0016 11.2397 7.7722 28.5381 29.5519 -5.5201 8.3776 3.5565 -0.5155 24.9669 10.3124 -0.6535 32.0567 35.5716 -9.9378 7.5116 -1.3814 7.3507 20.5110 7.6463 1.2226 3.0714 -5.3439 -47.9697 2.9475 -8.7142 48.8050 -6.0898 -14.6409 -3.3798 -0.0000 -0.0000 -1.1885 -1.0024 -12.7126 -4.7505 -15.4149 -6.9502 50.8675 15.1336 -1.4231 -6.6485 10.1740 3.0755 -25.7094 
11.3249 87.0884 3.6272 -4.7785 2.6570 1.5778 -4.7790 3.7224 3.0375 -6.4561 6.8687 5.6939 -6.4234 6.8261 5.7750 -6.4789 -3.8012 -1.6129 16.5442 -28.1322 -7.5092 -0.5999 -7.0326 1.7104 -20.8823 -0.5450 0.5460 71.9907 -58.9981 -106.7954 41.5716 -3.0028 9.3930 -58.8729 -32.6880 18.7961 -54.5745 -25.7500 12.9643 -29.6100 -13.2354 8.9255 -5.8906 4.8207 25.4521 0.5996 -1.7054 -9.8140 -1.6806 6.8000 8.8200 -52.8409 -24.5357 25.0478 -62.9965 -34.0873 24.6253 -43.5582 -21.7221 14.9546 -67.9778 -39.8771 15.7866 -46.9713 -17.8472 4.5408 -37.3680 -14.8189 1.2083 -57.5462 -42.9859 3.1322 -50.0080 -14.0087 4.5547 -34.6963 -13.0702 2.1276 -11.2985 3.1422 0.2973 3.4032 20.6774 -41.6041 -79.6950 57.3863 -115.8531 -51.2627 32.8963 39.4864 8.2008 -13.0123 26.3836 -0.5042 2.1014 -8.8563 -1.8250 -4.1678 -7.6895 38.5970 25.5055 8.7335 10.8559 12.4870 -3.8369 23.5593 13.6057 6.4809 29.0963 26.0447 -1.3179 21.9309 13.6447 0.7574 24.5400 11.0355 7.6608 28.4703 29.1379 -4.9711 2.7969 1.2673 -0.4108 23.9003 9.9044 -0.7709 32.1909 35.2894 -9.2990 2.9225 -2.4239 8.0305 20.0198 7.4542 1.2141 4.1443 -5.0170 -49.2298 2.0273 -8.3135 54.5712 -5.2703 -11.3189 -7.5313 0.0000 -0.0000 -1.0891 -3.0509 -12.4689 -7.4570 -13.6805 -4.2263 54.9181 14.6478 0.1783 -7.4101 10.0746 3.4963 -26.1284 
12.3664 85.5699 3.6590 -5.3035 -2.6362 1.4095 -5.2424 3.8954 3.6216 -6.9731 7.2622 6.5097 -6.9131 7.2192 6.6150 -5.7160 -3.9118 -1.6825 18.1124 -27.0080 -11.0607 -0.3753 -7.4200 1.7280 -27.0341 12.5514 1.2115 48.5428 -59.7463 -79.6831 36.3515 -6.5334 5.2169 -61.6583 -33.0355 20.6020 -58.0646 -26.5288 14.5879 -30.7862 -13.7185 9.2538 -5.7378 4.9341 25.3294 0.5792 -1.6980 -9.7697 -1.8050 6.9212 9.5710 -55.5129 -25.2127 26.5160 -65.1370 -34.3256 26.0276 -45.9562 -22.4424 16.1205 -73.1992 -40.2187 18.9172 -48.8132 -18.3852 5.0083 -37.8100 -14.9684 1.2934 -60.3003 -43.4065 4.7460 -51.9408 -14.5395 4.8108 -34.8877 -13.1404 2.1495 -9.3083 2.1358 0.4105 6.4220 21.8232 -39.6656 -86.5159 55.1760 -124.0456 -52.1289 32.4648 37.3768 9.4931 -12.0293 26.9305 -0.5042 2.1014 -8.8563 -1.8765 -4.0840 -8.0816 38.8271 25.6208 8.8075 7.8902 10.2706 -4.8334 22.6246 13.1389 6.1479 29.2521 26.1353 -1.2772 18.3668 11.8422 -0.1373 24.1198 10.8487 7.5608 28.8685 28.6344 -3.7649 -1.1349 -0.3337 -0.2037 23.2391 9.6501 -0.8399 32.4174 35.0390 -8.6111 1.0234 -2.8379 8.3353 19.7907 7.3645 1.2107 5.0173 -3.8526 -49.5906 1.1571 -7.8665 60.0273 -4.8658 -7.4042 -11.9095 0.0000 0.0000 -0.9109 -5.0342 -12.5639 -9.9488 -11.8804 -1.8932 58.3343 14.1685 0.4886 -9.8592 8.8740 3.5864 -24.8779 
13.5757 84.3712 3.6441 -6.0147 -9.3428 1.0261 -5.4987 3.8243 4.0541 -7.2797 7.2086 7.0028 -7.1961 7.1733 7.1200 -5.1240 -3.7326 -1.9647 18.1324 -24.8478 -12.9783 0.3776 -7.0377 1.5641 -32.1829 21.2180 -1.8196 19.0551 -50.6935 -44.2644 28.7436 -7.8411 3.4416 -64.4188 -33.4444 22.1807 -60.7283 -27.0564 15.8532 -31.0748 -13.8357 9.3358 -5.5544 5.0702 25.1951 0.6050 -1.7074 -9.8259 -1.9227 7.0418 10.3124 -57.2501 -25.6459 27.4281 -65.5504 -34.3665 26.2991 -46.7167 -22.6597 16.4953 -76.2036 -40.3155 20.7267 -49.3939 -18.5513 5.1592 -37.8534 -14.9830 1.3018 -62.0401 -43.6430 5.7696 -53.1038 -14.8538 4.9736 -34.6891 -13.0676 2.1268 -9.4095 1.6176 0.4025 6.3416 25.1949 -40.7582 -84.3164 55.9837 -121.3802 -52.8228 33.0771 37.3501 11.3269 -10.6610 27.5559 -0.5042 2.1014 -8.8563 -1.9199 -4.0154 -8.4046 39.1696 25.5565 9.2714 5.4454 8.3731 -5.5747 21.8219 12.7320 5.8674 29.6291 26.0745 -0.7514 15.9954 10.5993 -0.6716 23.8789 10.7411 7.5041 29.5036 28.2296 -2.4444 -3.4871 -1.2821 -0.0277 22.8819 9.5122 -0.8759 32.6644 34.8691 -8.0384 0.3250 -2.9873 8.4507 19.6765 7.3199 1.2091 5.8208 -1.7679 -48.4251 0.5049 -7.4168 64.5023 -5.0523 -3.2357 -16.3193 -0.0000 -0.0000 -0.7778 -6.3016 -12.1536 -12.2135 -10.5434 0.4186 60.5185 13.1703 0.9012 -12.7788 4.6455 2.0825 -25.7288 
14.8021 83.8731 3.7575 -7.0800 -17.2601 0.5707 -5.5511 3.5991 4.2866 -7.4178 6.8775 7.1508 -7.3210 6.8571 7.2651 -4.7539 -3.2904 -2.4148 17.8975 -21.8226 -13.9254 0.1932 -7.7858 1.6824 -32.6826 25.3959 -2.6083 4.7886 -35.2350 -23.6502 23.3781 -2.6525 3.2584 -66.3760 -33.7346 23.2360 -61.9194 -27.2738 16.4257 -30.9197 -13.7728 9.2916 -5.5180 5.0975 25.1219 0.6225 -1.7138 -9.8639 -2.0430 7.1714 11.1039 -57.4677 -25.7230 27.5012 -65.1013 -34.3220 26.0041 -46.4171 -22.5747 16.3474 -76.7689 -40.3302 21.0597 -49.1543 -18.4830 5.0968 -37.6145 -14.9023 1.2556 -62.3975 -43.6845 5.9883 -53.3681 -14.9247 5.0115 -34.2153 -12.8936 2.0738 -10.8332 1.5875 0.3394 4.0819 29.4311 -43.8582 -78.0160 57.8088 -113.8650 -52.0360 35.3319 40.1875 12.8429 -9.5585 27.8477 -0.5042 2.1014 -8.8563 -1.9167 -4.0204 -8.3809 39.5609 25.5029 9.7708 3.8004 7.0633 -6.0307 21.2667 12.4473 5.6764 30.1236 26.0274 -0.1125 14.4286 9.7604 -0.9970 23.7668 10.6909 7.4778 30.1927 28.1373 -1.5352 -4.7654 -1.7935 0.0841 22.7085 9.4452 -0.8931 32.9053 34.7964 -7.6394 -0.2206 -3.1031 8.5421 19.5413 7.2669 1.2074 7.1226 1.5753 -45.2291 3.1718 -6.0475 66.4760 -6.4091 -2.5417 -19.8625 -0.0000 -0.0000 -0.7401 -6.5786 -10.9996 -14.3458 -8.2607 3.7184 60.8667 11.6553 1.1490 -14.5524 1.6651 0.7699 -25.3995 
